<svg width="48" height="48" viewBox="0 0 48 48" fill="none" xmlns="http://www.w3.org/2000/svg">
<path d="M3 6H6.5L8 12M8 12L13 32H39L44 12H8Z" stroke="black" stroke-width="4" stroke-linecap="round" stroke-linejoin="round"/>
<path d="M13 42C14.6569 42 16 40.6569 16 39C16 37.3431 14.6569 36 13 36C11.3431 36 10 37.3431 10 39C10 40.6569 11.3431 42 13 42Z" stroke="black" stroke-width="4" stroke-linecap="round" stroke-linejoin="round"/>
<path d="M39 42C40.6569 42 42 40.6569 42 39C42 37.3431 40.6569 36 39 36C37.3431 36 36 37.3431 36 39C36 40.6569 37.3431 42 39 42Z" stroke="black" stroke-width="4" stroke-linecap="round" stroke-linejoin="round"/>
<path d="M22 22H30M26 26V18" stroke="black" stroke-width="4" stroke-linecap="round" stroke-linejoin="round"/>
</svg>
