<svg width="200" height="200" viewBox="0 0 200 200" fill="none" xmlns="http://www.w3.org/2000/svg">
<path d="M76.6663 199.167L62.083 190.833L87.083 147.5L72.9163 139.167L60.4163 160.833L45.833 152.5L88.7497 78.3334C83.4719 72.9167 79.5136 66.7362 76.8747 59.7917C74.2358 52.8473 72.9163 45.6945 72.9163 38.3334C72.9163 33.3334 73.5413 28.3667 74.7913 23.4334C76.0413 18.5056 78.0552 13.75 80.833 9.16671L94.9997 17.5C93.0552 20.6945 91.6663 23.9917 90.833 27.3917C89.9997 30.7973 89.583 34.3056 89.583 37.9167C89.583 45.2778 91.3886 52.1862 94.9997 58.6417C98.6108 65.1028 103.75 70.2778 110.416 74.1667L129.166 85C137.777 90 144.097 97.1861 148.125 106.558C152.152 115.936 154.166 124.722 154.166 132.917C154.166 138.194 153.472 143.333 152.083 148.333C150.694 153.333 148.75 158.056 146.25 162.5L131.666 154.167C133.611 150.833 135 147.431 135.833 143.958C136.666 140.486 137.083 136.944 137.083 133.333C137.083 128.889 136.458 124.583 135.208 120.417C133.958 116.25 131.944 112.361 129.166 108.75L76.6663 199.167ZM133.333 75C128.75 75 124.827 73.3667 121.566 70.1C118.3 66.8389 116.666 62.9167 116.666 58.3334C116.666 53.75 118.3 49.8278 121.566 46.5667C124.827 43.3 128.75 41.6667 133.333 41.6667C137.916 41.6667 141.841 43.3 145.108 46.5667C148.369 49.8278 150 53.75 150 58.3334C150 62.9167 148.369 66.8389 145.108 70.1C141.841 73.3667 137.916 75 133.333 75ZM112.5 33.3334C108.889 33.3334 105.902 32.0834 103.541 29.5834C101.18 27.0834 99.9997 24.1667 99.9997 20.8334C99.9997 17.2223 101.25 14.2362 103.75 11.875C106.25 9.51393 109.166 8.33337 112.5 8.33337C116.111 8.33337 119.097 9.58337 121.458 12.0834C123.819 14.5834 125 17.5 125 20.8334C125 24.4445 123.75 27.4306 121.25 29.7917C118.75 32.1528 115.833 33.3334 112.5 33.3334Z" fill="black"/>
</svg>
