<svg width="42" height="42" viewBox="0 0 42 42" fill="none" xmlns="http://www.w3.org/2000/svg">
<path d="M9.54625 26.25L1.75 32.375V5.25C1.75 4.78587 1.93437 4.34075 2.26256 4.01256C2.59075 3.68437 3.03587 3.5 3.5 3.5H29.75C30.2141 3.5 30.6592 3.68437 30.9874 4.01256C31.3156 4.34075 31.5 4.78587 31.5 5.25V26.25H9.54625ZM8.33525 22.75H28V7H5.25V25.1738L8.33525 22.75ZM14 29.75H31.9147L35 32.1738V14H36.75C37.2141 14 37.6592 14.1844 37.9874 14.5126C38.3156 14.8408 38.5 15.2859 38.5 15.75V39.375L30.7038 33.25H15.75C15.2859 33.25 14.8408 33.0656 14.5126 32.7374C14.1844 32.4092 14 31.9641 14 31.5V29.75Z" fill="black"/>
</svg>
