<svg width="42" height="42" viewBox="0 0 42 42" fill="none" xmlns="http://www.w3.org/2000/svg">
<path d="M2.625 6.5625C2.625 5.51821 3.03984 4.51669 3.77827 3.77827C4.51669 3.03984 5.51821 2.625 6.5625 2.625H14.4375C15.4818 2.625 16.4833 3.03984 17.2217 3.77827C17.9602 4.51669 18.375 5.51821 18.375 6.5625V14.4375C18.375 15.4818 17.9602 16.4833 17.2217 17.2217C16.4833 17.9602 15.4818 18.375 14.4375 18.375H6.5625C5.51821 18.375 4.51669 17.9602 3.77827 17.2217C3.03984 16.4833 2.625 15.4818 2.625 14.4375V6.5625ZM23.625 6.5625C23.625 5.51821 24.0398 4.51669 24.7783 3.77827C25.5167 3.03984 26.5182 2.625 27.5625 2.625H35.4375C36.4818 2.625 37.4833 3.03984 38.2217 3.77827C38.9602 4.51669 39.375 5.51821 39.375 6.5625V14.4375C39.375 15.4818 38.9602 16.4833 38.2217 17.2217C37.4833 17.9602 36.4818 18.375 35.4375 18.375H27.5625C26.5182 18.375 25.5167 17.9602 24.7783 17.2217C24.0398 16.4833 23.625 15.4818 23.625 14.4375V6.5625ZM2.625 27.5625C2.625 26.5182 3.03984 25.5167 3.77827 24.7783C4.51669 24.0398 5.51821 23.625 6.5625 23.625H14.4375C15.4818 23.625 16.4833 24.0398 17.2217 24.7783C17.9602 25.5167 18.375 26.5182 18.375 27.5625V35.4375C18.375 36.4818 17.9602 37.4833 17.2217 38.2217C16.4833 38.9602 15.4818 39.375 14.4375 39.375H6.5625C5.51821 39.375 4.51669 38.9602 3.77827 38.2217C3.03984 37.4833 2.625 36.4818 2.625 35.4375V27.5625ZM23.625 27.5625C23.625 26.5182 24.0398 25.5167 24.7783 24.7783C25.5167 24.0398 26.5182 23.625 27.5625 23.625H35.4375C36.4818 23.625 37.4833 24.0398 38.2217 24.7783C38.9602 25.5167 39.375 26.5182 39.375 27.5625V35.4375C39.375 36.4818 38.9602 37.4833 38.2217 38.2217C37.4833 38.9602 36.4818 39.375 35.4375 39.375H27.5625C26.5182 39.375 25.5167 38.9602 24.7783 38.2217C24.0398 37.4833 23.625 36.4818 23.625 35.4375V27.5625Z" fill="black"/>
</svg>
