<svg width="40" height="40" viewBox="0 0 40 40" fill="red" xmlns="http://www.w3.org/2000/svg">
<path d="M22.6662 11.75V6.66667C22.6662 6.22464 22.8418 5.80072 23.1543 5.48816C23.4669 5.17559 23.8908 5 24.3328 5C24.7701 5.00184 25.1891 5.17543 25.4995 5.48333L37.1662 17.15C37.3224 17.3049 37.4464 17.4893 37.531 17.6924C37.6156 17.8955 37.6592 18.1133 37.6592 18.3333C37.6592 18.5534 37.6156 18.7712 37.531 18.9743C37.4464 19.1774 37.3224 19.3617 37.1662 19.5167L25.4995 31.1833C25.2655 31.4127 24.9692 31.568 24.6474 31.6298C24.3257 31.6917 23.9928 31.6573 23.6905 31.531C23.3882 31.4048 23.1298 31.1922 22.9476 30.9199C22.7654 30.6476 22.6675 30.3276 22.6662 30V24.8333H21.2495C18.6163 24.7941 16.0061 25.3283 13.6001 26.3989C11.194 27.4695 9.04979 29.0509 7.31618 31.0333C7.10726 31.3115 6.81655 31.5173 6.48479 31.6219C6.15303 31.7265 5.79686 31.7247 5.46618 31.6167C5.12967 31.5031 4.83824 31.285 4.63437 30.9942C4.4305 30.7034 4.32486 30.3551 4.33285 30C4.33285 14.8 17.7995 12.2 22.6662 11.75ZM21.2495 21.4667C22.3643 21.4632 23.4779 21.5356 24.5828 21.6833C24.9774 21.7432 25.3374 21.9426 25.5974 22.2454C25.8573 22.5482 26 22.9343 25.9995 23.3333V25.9833L33.6328 18.3333L25.9995 10.6833V13.3333C25.9995 13.7754 25.8239 14.1993 25.5114 14.5118C25.1988 14.8244 24.7749 15 24.3328 15C22.8162 15 10.8162 15.3333 8.21618 25.7167C11.99 22.9343 16.5609 21.4438 21.2495 21.4667Z" fill="black"/>
<filter x="0" y="0" width="48" height="48"/>
</svg>
