<svg width="200" height="200" viewBox="0 0 200 200" fill="none" xmlns="http://www.w3.org/2000/svg">
<path d="M99.9997 183.333L95.833 100L66.6663 91.6667H8.33301V75H58.333L116.666 33.3334L127.5 46.0417L92.9163 70.8334H116.666L181.666 33.3334L191.666 45L120.833 100L116.666 183.333H99.9997ZM49.9997 66.6667C45.4163 66.6667 41.4941 65.0334 38.233 61.7667C34.9663 58.5056 33.333 54.5834 33.333 50C33.333 45.4167 34.9663 41.4945 38.233 38.2334C41.4941 34.9667 45.4163 33.3334 49.9997 33.3334C54.583 33.3334 58.5052 34.9667 61.7663 38.2334C65.033 41.4945 66.6663 45.4167 66.6663 50C66.6663 54.5834 65.033 58.5056 61.7663 61.7667C58.5052 65.0334 54.583 66.6667 49.9997 66.6667Z" fill="black"/>
</svg>
