<svg width="41" height="41" viewBox="0 0 41 41" fill="none" xmlns="http://www.w3.org/2000/svg">
<path d="M36.9519 28.1034H13.1086L14.3058 25.665L34.1972 25.629C34.8698 25.629 35.4464 25.1485 35.5665 24.4839L38.3212 9.06484C38.3933 8.66045 38.2852 8.24404 38.0209 7.92773C37.8903 7.77206 37.7274 7.64667 37.5435 7.56024C37.3596 7.47382 37.1591 7.42844 36.9559 7.42725L11.6512 7.34316L11.435 6.32617C11.2988 5.67754 10.7143 5.20508 10.0496 5.20508H3.86357C3.48872 5.20508 3.12922 5.35399 2.86416 5.61905C2.5991 5.88411 2.4502 6.24361 2.4502 6.61846C2.4502 6.99331 2.5991 7.35281 2.86416 7.61787C3.12922 7.88293 3.48872 8.03184 3.86357 8.03184H8.90449L9.84941 12.5242L12.1757 23.7872L9.18076 28.676C9.02523 28.8859 8.93155 29.1352 8.91033 29.3955C8.8891 29.6559 8.94117 29.9171 9.06065 30.1494C9.30088 30.6259 9.78535 30.9262 10.3219 30.9262H12.8363C12.3003 31.6382 12.0107 32.5054 12.0115 33.3966C12.0115 35.6628 13.8533 37.5046 16.1195 37.5046C18.3857 37.5046 20.2275 35.6628 20.2275 33.3966C20.2275 32.5037 19.9313 31.6349 19.4027 30.9262H25.853C25.317 31.6382 25.0274 32.5054 25.0282 33.3966C25.0282 35.6628 26.87 37.5046 29.1362 37.5046C31.4024 37.5046 33.2442 35.6628 33.2442 33.3966C33.2442 32.5037 32.948 31.6349 32.4194 30.9262H36.9559C37.7326 30.9262 38.3692 30.2936 38.3692 29.5128C38.3669 29.1383 38.2166 28.78 37.951 28.516C37.6855 28.2519 37.3263 28.1036 36.9519 28.1034ZM12.2397 10.1299L35.2942 10.206L33.036 22.8503L14.9264 22.8823L12.2397 10.1299ZM16.1195 34.6618C15.4229 34.6618 14.8543 34.0933 14.8543 33.3966C14.8543 32.6999 15.4229 32.1313 16.1195 32.1313C16.8162 32.1313 17.3848 32.6999 17.3848 33.3966C17.3848 33.7321 17.2515 34.054 17.0142 34.2912C16.7769 34.5285 16.4551 34.6618 16.1195 34.6618ZM29.1362 34.6618C28.4396 34.6618 27.871 34.0933 27.871 33.3966C27.871 32.6999 28.4396 32.1313 29.1362 32.1313C29.8329 32.1313 30.4015 32.6999 30.4015 33.3966C30.4015 33.7321 30.2682 34.054 30.0309 34.2912C29.7936 34.5285 29.4718 34.6618 29.1362 34.6618Z" fill="black"/>
</svg>
