<svg width="42" height="42" viewBox="0 0 42 42" fill="none" xmlns="http://www.w3.org/2000/svg">
<path fill-rule="evenodd" clip-rule="evenodd" d="M2.45605 21C2.45605 16.0817 4.40983 11.3648 7.88758 7.8871C11.3653 4.40935 16.0822 2.45557 21.0005 2.45557C25.9187 2.45557 30.6356 4.40935 34.1133 7.8871C37.5911 11.3648 39.5449 16.0817 39.5449 21C39.5449 25.9182 37.5911 30.6351 34.1133 34.1128C30.6356 37.5906 25.9187 39.5444 21.0005 39.5444C16.0822 39.5444 11.3653 37.5906 7.88758 34.1128C4.40983 30.6351 2.45605 25.9182 2.45605 21V21ZM21.0005 5.11557C16.7877 5.11557 12.7474 6.7891 9.76849 9.768C6.78959 12.7469 5.11606 16.7872 5.11606 21C5.11606 25.2128 6.78959 29.253 9.76849 32.2319C12.7474 35.2108 16.7877 36.8844 21.0005 36.8844C25.2133 36.8844 29.2535 35.2108 32.2324 32.2319C35.2113 29.253 36.8849 25.2128 36.8849 21C36.8849 16.7872 35.2113 12.7469 32.2324 9.768C29.2535 6.7891 25.2133 5.11557 21.0005 5.11557V5.11557ZM23.1005 29.4C23.1005 29.9569 22.8792 30.4911 22.4854 30.8849C22.0916 31.2787 21.5574 31.5 21.0005 31.5C20.4435 31.5 19.9094 31.2787 19.5155 30.8849C19.1217 30.4911 18.9005 29.9569 18.9005 29.4C18.9005 28.843 19.1217 28.3089 19.5155 27.915C19.9094 27.5212 20.4435 27.3 21.0005 27.3C21.5574 27.3 22.0916 27.5212 22.4854 27.915C22.8792 28.3089 23.1005 28.843 23.1005 29.4ZM16.9405 17.5C16.9405 15.6016 18.5785 13.79 21.0005 13.79C23.4225 13.79 25.0605 15.6016 25.0605 17.5C25.0605 18.8748 24.3045 19.5776 22.9997 20.37C22.8569 20.4596 22.6889 20.5548 22.5069 20.6612C21.9597 20.9634 21.4322 21.3001 20.9277 21.6692C20.2501 22.1956 19.4605 23.0496 19.4605 24.36C19.459 24.7684 19.6198 25.1607 19.9076 25.4506C20.1953 25.7404 20.5864 25.9041 20.9949 25.9056C21.4033 25.9071 21.7956 25.7462 22.0854 25.4585C22.3753 25.1707 22.539 24.7796 22.5405 24.3712C22.6187 24.2654 22.7132 24.1728 22.8205 24.0968C23.1061 23.8756 23.4225 23.6936 23.8453 23.4472C24.0637 23.3212 24.3129 23.1756 24.6013 23.002C26.0965 22.092 28.1405 20.5912 28.1405 17.5C28.1405 13.7984 25.0185 10.71 21.0005 10.71C16.9825 10.71 13.8605 13.7984 13.8605 17.5C13.8605 17.9084 14.0227 18.3001 14.3115 18.5889C14.6003 18.8777 14.992 19.04 15.4005 19.04C15.8089 19.04 16.2006 18.8777 16.4894 18.5889C16.7782 18.3001 16.9405 17.9084 16.9405 17.5V17.5Z" fill="black"/>
</svg>
