<svg width="120" height="120" viewBox="0 0 120 120" fill="none" xmlns="http://www.w3.org/2000/svg">
<path d="M60 32.5C69.1937 32.4694 78.2094 35.0339 86.0106 39.8986C93.8118 44.7633 100.082 51.7308 104.1 60C95.85 76.85 79 87.5 60 87.5C41 87.5 24.15 76.85 15.9 60C19.9181 51.7308 26.1882 44.7633 33.9894 39.8986C41.7906 35.0339 50.8063 32.4694 60 32.5M60 22.5C35 22.5 13.65 38.05 5 60C13.65 81.95 35 97.5 60 97.5C85 97.5 106.35 81.95 115 60C106.35 38.05 85 22.5 60 22.5ZM60 47.5C63.3152 47.5 66.4946 48.817 68.8388 51.1612C71.183 53.5054 72.5 56.6848 72.5 60C72.5 63.3152 71.183 66.4946 68.8388 68.8388C66.4946 71.183 63.3152 72.5 60 72.5C56.6848 72.5 53.5054 71.183 51.1612 68.8388C48.817 66.4946 47.5 63.3152 47.5 60C47.5 56.6848 48.817 53.5054 51.1612 51.1612C53.5054 48.817 56.6848 47.5 60 47.5M60 37.5C47.6 37.5 37.5 47.6 37.5 60C37.5 72.4 47.6 82.5 60 82.5C72.4 82.5 82.5 72.4 82.5 60C82.5 47.6 72.4 37.5 60 37.5Z" fill="black"/>
</svg>
