<svg width="400" height="400" viewBox="0 0 400 400" fill="none" xmlns="http://www.w3.org/2000/svg">
<g clip-path="url(#clip0_310_310)">
<path d="M225.5 16.5C258 16.5 260 66.5 225.5 66.5C191.001 66.5 193.001 16.5 225.5 16.5Z" stroke="black" stroke-width="4"/>
<path d="M92.5 305L177.001 157.5C161.997 136.457 152.401 118.935 148.155 101.5C141.459 74 145.5 41.5 162.001 18.5L189.5 35.5C164 84.5 190.118 131.805 225.5 151.5C253.375 165.882 266.311 173.498 277 185C321 238.5 312 289.5 292 324.5L263.5 308C279 278.5 279.108 245.112 257.5 218.5L153.5 398L125 382L174 295L145.5 278.5L120.5 321.5L92.5 305Z" stroke="black" stroke-width="4"/>
<path d="M267.5 83.5C311.5 83.5 312.908 149.5 267.5 149.5C222.092 149.5 223.5 83.5 267.5 83.5Z" stroke="black" stroke-width="4"/>
</g>
<defs>
<clipPath id="clip0_310_310">
<rect width="400" height="400" fill="white"/>
</clipPath>
</defs>
</svg>
