<svg width="120" height="120" viewBox="0 0 120 120" fill="none" xmlns="http://www.w3.org/2000/svg">
<path d="M100 25H84.15L75 15H45L35.85 25H20C14.5 25 10 29.5 10 35V95C10 100.5 14.5 105 20 105H100C105.5 105 110 100.5 110 95V35C110 29.5 105.5 25 100 25ZM100 95H20V35H40.25L49.4 25H70.6L79.75 35H100V95Z" fill="black"/>
<path d="M60 65C65.5228 65 70 60.5228 70 55C70 49.4772 65.5228 45 60 45C54.4772 45 50 49.4772 50 55C50 60.5228 54.4772 65 60 65Z" fill="black"/>
<path d="M73.9 72.9001C69.5157 70.9867 64.7836 69.999 60 69.999C55.2164 69.999 50.4843 70.9867 46.1 72.9001C44.2886 73.6744 42.7446 74.964 41.6601 76.6085C40.5756 78.2531 39.9983 80.1801 40 82.1501V85.0001H80V82.1501C80 78.1001 77.6 74.5001 73.9 72.9001Z" fill="black"/>
</svg>
