<svg width="29" height="29" viewBox="0 0 29 29" fill="none" xmlns="http://www.w3.org/2000/svg">
<path d="M24.167 24.1666H4.83366C4.19272 24.1666 3.57803 23.912 3.12482 23.4588C2.6716 23.0055 2.41699 22.3909 2.41699 21.7499V7.14479C2.4441 6.52225 2.71063 5.93424 3.16094 5.50352C3.61124 5.0728 4.21052 4.83266 4.83366 4.83325H24.167C24.8079 4.83325 25.4226 5.08787 25.8758 5.54108C26.329 5.99429 26.5837 6.60898 26.5837 7.24992V21.7499C26.5837 22.3909 26.329 23.0055 25.8758 23.4588C25.4226 23.912 24.8079 24.1666 24.167 24.1666ZM4.83366 9.50709V21.7499H24.167V9.50709L14.5003 15.9499L4.83366 9.50709ZM5.80033 7.24992L14.5003 13.0499L23.2003 7.24992H5.80033Z" fill="white"/>
</svg>
