<svg width="42" height="42" viewBox="0 0 42 42" fill="none" xmlns="http://www.w3.org/2000/svg">
<path d="M28 3.5H14C8.20925 3.5 3.5 8.20925 3.5 14V36.75C3.5 37.2141 3.68437 37.6592 4.01256 37.9874C4.34075 38.3156 4.78587 38.5 5.25 38.5H28C33.7908 38.5 38.5 33.7908 38.5 28V14C38.5 8.20925 33.7908 3.5 28 3.5ZM35 28C35 31.8605 31.8605 35 28 35H7V14C7 10.1395 10.1395 7 14 7H28C31.8605 7 35 10.1395 35 14V28Z" fill="black"/>
<path d="M19.25 10.5H22.75V24.5H19.25V10.5ZM19.25 28H22.75V31.5H19.25V28Z" fill="black"/>
</svg>
