<svg width="42" height="42" viewBox="0 0 42 42" fill="none" xmlns="http://www.w3.org/2000/svg">
<path d="M40 35.7778V6.22222C40 3.9 38.1 2 35.7778 2H6.22222C3.9 2 2 3.9 2 6.22222V35.7778C2 38.1 3.9 40 6.22222 40H35.7778C38.1 40 40 38.1 40 35.7778ZM14.4556 25.18L18.8889 30.5211L25.4333 22.0978C25.8556 21.5489 26.7 21.5489 27.1222 22.1189L34.5322 31.9989C34.6498 32.1557 34.7215 32.3422 34.7391 32.5374C34.7567 32.7327 34.7196 32.9289 34.6319 33.1043C34.5442 33.2796 34.4095 33.4271 34.2427 33.5301C34.076 33.6332 33.8838 33.6878 33.6878 33.6878H8.37556C7.48889 33.6878 7.00333 32.6744 7.55222 31.9778L12.8089 25.2222C13.21 24.6733 14.0122 24.6522 14.4556 25.18V25.18Z" fill="black"/>
</svg>
