<svg width="500" height="500" viewBox="0 0 400 400" fill="none" xmlns="http://www.w3.org/2000/svg">
<path d="M300 125C311.05 125 321.648 120.61 329.462 112.796C337.276 104.982 341.666 94.384 341.666 83.3333C341.666 72.2826 337.276 61.6845 329.462 53.8705C321.648 46.0565 311.05 41.6666 300 41.6666C288.949 41.6666 278.351 46.0565 270.537 53.8705C262.723 61.6845 258.333 72.2826 258.333 83.3333C258.333 94.384 262.723 104.982 270.537 112.796C278.351 120.61 288.949 125 300 125Z" stroke="black" stroke-width="4"/>
<path d="M99.9995 139.75L166.691 116.65L258.333 160.392L166.691 228.7L258.333 289.033L200.066 366.65M294.333 180.358L316.683 192.517L366.666 145.55M140.408 262.875L115.658 295.475L33.3662 341.642" stroke="black" stroke-width="4" stroke-linecap="round" stroke-linejoin="round"/>
</svg>
