<svg width="42" height="42" viewBox="0 0 42 42" fill="none" xmlns="http://www.w3.org/2000/svg">
<path d="M2.625 5.25C2.625 4.55381 2.90156 3.88613 3.39384 3.39384C3.88613 2.90156 4.55381 2.625 5.25 2.625H10.5C11.1962 2.625 11.8639 2.90156 12.3562 3.39384C12.8484 3.88613 13.125 4.55381 13.125 5.25V10.5C13.125 11.1962 12.8484 11.8639 12.3562 12.3562C11.8639 12.8484 11.1962 13.125 10.5 13.125H5.25C4.55381 13.125 3.88613 12.8484 3.39384 12.3562C2.90156 11.8639 2.625 11.1962 2.625 10.5V5.25ZM15.75 5.25C15.75 4.55381 16.0266 3.88613 16.5188 3.39384C17.0111 2.90156 17.6788 2.625 18.375 2.625H23.625C24.3212 2.625 24.9889 2.90156 25.4812 3.39384C25.9734 3.88613 26.25 4.55381 26.25 5.25V10.5C26.25 11.1962 25.9734 11.8639 25.4812 12.3562C24.9889 12.8484 24.3212 13.125 23.625 13.125H18.375C17.6788 13.125 17.0111 12.8484 16.5188 12.3562C16.0266 11.8639 15.75 11.1962 15.75 10.5V5.25ZM28.875 5.25C28.875 4.55381 29.1516 3.88613 29.6438 3.39384C30.1361 2.90156 30.8038 2.625 31.5 2.625H36.75C37.4462 2.625 38.1139 2.90156 38.6062 3.39384C39.0984 3.88613 39.375 4.55381 39.375 5.25V10.5C39.375 11.1962 39.0984 11.8639 38.6062 12.3562C38.1139 12.8484 37.4462 13.125 36.75 13.125H31.5C30.8038 13.125 30.1361 12.8484 29.6438 12.3562C29.1516 11.8639 28.875 11.1962 28.875 10.5V5.25ZM2.625 18.375C2.625 17.6788 2.90156 17.0111 3.39384 16.5188C3.88613 16.0266 4.55381 15.75 5.25 15.75H10.5C11.1962 15.75 11.8639 16.0266 12.3562 16.5188C12.8484 17.0111 13.125 17.6788 13.125 18.375V23.625C13.125 24.3212 12.8484 24.9889 12.3562 25.4812C11.8639 25.9734 11.1962 26.25 10.5 26.25H5.25C4.55381 26.25 3.88613 25.9734 3.39384 25.4812C2.90156 24.9889 2.625 24.3212 2.625 23.625V18.375ZM15.75 18.375C15.75 17.6788 16.0266 17.0111 16.5188 16.5188C17.0111 16.0266 17.6788 15.75 18.375 15.75H23.625C24.3212 15.75 24.9889 16.0266 25.4812 16.5188C25.9734 17.0111 26.25 17.6788 26.25 18.375V23.625C26.25 24.3212 25.9734 24.9889 25.4812 25.4812C24.9889 25.9734 24.3212 26.25 23.625 26.25H18.375C17.6788 26.25 17.0111 25.9734 16.5188 25.4812C16.0266 24.9889 15.75 24.3212 15.75 23.625V18.375ZM28.875 18.375C28.875 17.6788 29.1516 17.0111 29.6438 16.5188C30.1361 16.0266 30.8038 15.75 31.5 15.75H36.75C37.4462 15.75 38.1139 16.0266 38.6062 16.5188C39.0984 17.0111 39.375 17.6788 39.375 18.375V23.625C39.375 24.3212 39.0984 24.9889 38.6062 25.4812C38.1139 25.9734 37.4462 26.25 36.75 26.25H31.5C30.8038 26.25 30.1361 25.9734 29.6438 25.4812C29.1516 24.9889 28.875 24.3212 28.875 23.625V18.375ZM2.625 31.5C2.625 30.8038 2.90156 30.1361 3.39384 29.6438C3.88613 29.1516 4.55381 28.875 5.25 28.875H10.5C11.1962 28.875 11.8639 29.1516 12.3562 29.6438C12.8484 30.1361 13.125 30.8038 13.125 31.5V36.75C13.125 37.4462 12.8484 38.1139 12.3562 38.6062C11.8639 39.0984 11.1962 39.375 10.5 39.375H5.25C4.55381 39.375 3.88613 39.0984 3.39384 38.6062C2.90156 38.1139 2.625 37.4462 2.625 36.75V31.5ZM15.75 31.5C15.75 30.8038 16.0266 30.1361 16.5188 29.6438C17.0111 29.1516 17.6788 28.875 18.375 28.875H23.625C24.3212 28.875 24.9889 29.1516 25.4812 29.6438C25.9734 30.1361 26.25 30.8038 26.25 31.5V36.75C26.25 37.4462 25.9734 38.1139 25.4812 38.6062C24.9889 39.0984 24.3212 39.375 23.625 39.375H18.375C17.6788 39.375 17.0111 39.0984 16.5188 38.6062C16.0266 38.1139 15.75 37.4462 15.75 36.75V31.5ZM28.875 31.5C28.875 30.8038 29.1516 30.1361 29.6438 29.6438C30.1361 29.1516 30.8038 28.875 31.5 28.875H36.75C37.4462 28.875 38.1139 29.1516 38.6062 29.6438C39.0984 30.1361 39.375 30.8038 39.375 31.5V36.75C39.375 37.4462 39.0984 38.1139 38.6062 38.6062C38.1139 39.0984 37.4462 39.375 36.75 39.375H31.5C30.8038 39.375 30.1361 39.0984 29.6438 38.6062C29.1516 38.1139 28.875 37.4462 28.875 36.75V31.5Z" fill="black"/>
</svg>
