<svg width="200" height="200" viewBox="0 0 200 200" fill="none" xmlns="http://www.w3.org/2000/svg">
<path d="M100 41.6667C90.7503 41.6667 83.3337 49.0834 83.3337 58.3334C83.3337 67.5834 90.7503 75 100 75C109.25 75 116.667 67.5834 116.667 58.3334C116.667 49.0834 109.25 41.6667 100 41.6667ZM183.334 8.33337V50H166.667V33.3334H33.3337V50H16.667V8.33337H33.3337V25H166.667V8.33337H183.334ZM125 93.8334V191.667H108.334V150H91.667V191.667H75.0003V93.8334C57.7503 84.75 45.8337 66.6667 45.8337 45.8334V41.6667H62.5003V45.8334C62.5003 66.6667 79.167 83.3334 100 83.3334C120.834 83.3334 137.5 66.6667 137.5 45.8334V41.6667H154.167V45.8334C154.167 66.6667 142.25 84.75 125 93.8334Z" fill="black"/>
</svg>
