<svg width="120" height="120" viewBox="0 0 120 120" fill="none" xmlns="http://www.w3.org/2000/svg">
<path d="M55 45H65V30H80V20H65V5H55V20H40V30H55V45ZM35 90C29.5 90 25.05 94.5 25.05 100C25.05 105.5 29.5 110 35 110C40.5 110 45 105.5 45 100C45 94.5 40.5 90 35 90ZM85 90C79.5 90 75.05 94.5 75.05 100C75.05 105.5 79.5 110 85 110C90.5 110 95 105.5 95 100C95 94.5 90.5 90 85 90ZM40.5 65H77.75C81.5 65 84.8 62.95 86.5 59.85L105.8 24.8L97.1 20L77.75 55H42.65L21.35 10H5V20H15L33 57.95L26.25 70.15C22.6 76.85 27.4 85 35 85H95V75H35L40.5 65Z" fill="black"/>
</svg>
