<svg width="42" height="42" viewBox="0 0 42 42" fill="none" xmlns="http://www.w3.org/2000/svg">
<path d="M36.8447 32.4807L28.9088 24.5448C30.1459 22.5142 30.7985 20.1816 30.7946 17.8038C30.7946 10.6281 24.5765 4.41211 17.4008 4.41211C15.6947 4.41183 14.0054 4.74766 12.4291 5.4004C10.8529 6.05314 9.42074 7.01001 8.2144 8.21635C7.00806 9.4227 6.05119 10.8549 5.39845 12.4311C4.7457 14.0073 4.40988 15.6967 4.41016 17.4027C4.41016 24.5763 10.6283 30.7944 17.8019 30.7944C20.1013 30.7965 22.3595 30.1846 24.3434 29.022L32.3213 37.0041C32.6964 37.3783 33.2047 37.5884 33.7346 37.5884C34.2644 37.5884 34.7727 37.3783 35.1479 37.0041L37.1282 35.0238C37.9073 34.2447 37.6238 33.2598 36.8447 32.4807ZM8.40856 17.4027C8.40828 16.2217 8.64067 15.0521 9.09244 13.9609C9.54422 12.8697 10.2065 11.8781 11.0416 11.0429C11.8766 10.2077 12.868 9.54513 13.9591 9.0931C15.0502 8.64107 16.2197 8.40841 17.4008 8.40841C22.3694 8.40841 26.7962 12.8331 26.7962 17.8038C26.7956 20.1891 25.8478 22.4765 24.1612 24.1631C22.4745 25.8498 20.1871 26.7976 17.8019 26.7981C12.8333 26.796 8.40856 22.3692 8.40856 17.4027V17.4027Z" fill="black"/>
</svg>
