<svg width="489" height="489" viewBox="0 0 489 489" fill="none" xmlns="http://www.w3.org/2000/svg">
<path d="M366.75 152.812C380.259 152.812 393.216 147.446 402.768 137.893C412.321 128.341 417.688 115.384 417.688 101.875C417.688 88.3655 412.321 75.4094 402.768 65.8567C393.216 56.3041 380.259 50.9375 366.75 50.9375C353.241 50.9375 340.284 56.3041 330.732 65.8567C321.179 75.4094 315.812 88.3655 315.812 101.875C315.812 115.384 321.179 128.341 330.732 137.893C340.284 147.446 353.241 152.812 366.75 152.812Z" stroke="black" stroke-width="30"/>
<path d="M122.25 170.844L203.781 142.605L315.813 196.079L203.781 279.586L315.813 353.343L244.582 448.23M359.823 220.488L387.146 235.352L448.25 177.935M171.649 321.365L141.393 361.218L40.791 417.657" stroke="black" stroke-width="30" stroke-linecap="round" stroke-linejoin="round"/>
</svg>
